<?xml version="1.0"?><svg width="330.47946" height="325.95135" xmlns="http://www.w3.org/2000/svg">
 <title>Lab Mouse Template</title>
 <g>
  <title>Layer 1</title>
  <path transform="rotate(87.2865 203.564 -14.0946)" d="m260.127106,-7.3934c-0.949005,-12.395069 -39.225739,-45.56024 -72.757431,-12.060061c-33.531693,33.500179 -36.378708,17.7551 -39.542084,18.425102c-3.163361,0.669987 3.14859,7.925549 12.020798,6.70002c21.827225,-3.015003 36.378708,-31.825161 56.624252,-31.490162c20.40062,0.337561 31.317337,19.0951 31.317337,19.0951l12.337128,-0.67z" id="path3264" stroke-miterlimit="4" stroke-width="4" stroke="#000000" fill-rule="evenodd" fill="#ffffff"/>
  <path d="m287.148682,138.98024c0,62.795166 -43.255905,178.269211 -72.241547,178.269211c-29.798019,0 -72.241531,-115.474045 -72.241531,-178.269211c0,-62.795174 32.364212,-113.759359 72.241531,-113.759359c39.877365,0 72.241547,50.964186 72.241547,113.759359z" id="path2383" stroke-miterlimit="4" stroke-linecap="round" stroke-width="4" stroke="#000000" fill-rule="nonzero" fill="#ffffff"/>
  <path d="m286.994904,216.80928c13.4133,-1.692871 23.897339,-16.203171 23.897308,-33.849319c0,-18.782684 -11.886719,-34.028336 -26.53125,-34.02832c-14.644531,0 -26.53125,15.245621 -26.53125,34.02832c0,1.32016 0.060181,2.634033 0.174438,3.915146" id="path2386" stroke-miterlimit="4" stroke-linecap="round" stroke-width="4" stroke="#000000" fill-rule="nonzero" fill="#ffffff" transform="rotate(16.8764 284.361 182.87)"/>
  <path d="m172.049469,183.660583c0.137833,-1.434219 0.209259,-2.903473 0.209259,-4.386444c0,-19.180359 -11.866226,-34.748795 -26.506897,-34.748779c-14.640732,0 -26.524361,15.568405 -26.524353,34.748779c0,18.46434 11.00145,33.577408 24.885101,34.680252" id="path2388" stroke-miterlimit="4" stroke-linecap="round" stroke-width="4" stroke="#000000" fill-rule="nonzero" fill="#ffffff" transform="rotate(-11.4206 145.743 164.093)"/>
  <path d="m197.873901,250.612076c0.001419,4.081787 -2.626648,7.391678 -5.869034,7.391678c-3.242355,0 -5.870422,-3.309891 -5.869003,-7.391678c-0.001419,-4.081772 2.626648,-7.391663 5.869003,-7.391663c3.242386,0 5.870453,3.309891 5.869034,7.391663z" id="path2397" stroke-miterlimit="4" stroke-linecap="round" stroke-width="2" stroke="#000000" fill-rule="nonzero" fill="#000000"/>
  <path d="m243.108734,251.048645c0.001419,4.081787 -2.626648,7.391663 -5.869034,7.391663c-3.242355,0 -5.870422,-3.309875 -5.869003,-7.391663c-0.001419,-4.081787 2.626648,-7.391663 5.869003,-7.391663c3.242386,0 5.870453,3.309875 5.869034,7.391663z" stroke-miterlimit="4" stroke-linecap="round" stroke-width="2" stroke="#000000" fill-rule="nonzero" fill="#000000" id="svg_1"/>
 </g>
</svg>